<svg width="24" height="24" viewBox="0 0 24 24" fill="none" xmlns="http://www.w3.org/2000/svg">
<g clip-path="url(#clip0_30968_27315)">
<path d="M16.6148 6.92296H12.9225C12.6676 6.92296 12.4609 6.71633 12.4609 6.46143V2.76912C12.4609 1.49666 13.4962 0.461426 14.7686 0.461426C16.0411 0.461426 17.0763 1.49666 17.0763 2.76912V6.46143C17.0763 6.71633 16.8696 6.92296 16.6148 6.92296ZM13.384 5.99989H16.1532V2.76912C16.1532 2.00564 15.5321 1.3845 14.7686 1.3845C14.0052 1.3845 13.384 2.00564 13.384 2.76912V5.99989ZM19.384 23.5383C18.3275 23.5383 17.327 23.329 16.5667 22.9489C15.7048 22.518 15.2302 21.9077 15.2302 21.2307V20.7691C15.2302 20.0056 15.8513 19.3845 16.6148 19.3845H22.1532C22.9167 19.3845 23.5379 20.0056 23.5379 20.7691V21.2307C23.5379 21.9077 23.0632 22.518 22.2013 22.9489C21.441 23.329 20.4405 23.5383 19.384 23.5383ZM16.6148 20.3076C16.3603 20.3076 16.1532 20.5146 16.1532 20.7691V21.2307C16.1532 21.8842 17.535 22.6153 19.384 22.6153C21.2331 22.6153 22.6148 21.8842 22.6148 21.2307V20.7691C22.6148 20.5146 22.4077 20.3076 22.1532 20.3076H16.6148ZM22.1532 14.3076H16.6148C15.8513 14.3076 15.2302 13.6864 15.2302 12.923V12.4614C15.2302 11.7843 15.7048 11.1741 16.5667 10.7432C17.327 10.3631 18.3275 10.1537 19.384 10.1537C20.4405 10.1537 21.441 10.3631 22.2013 10.7432C23.0632 11.1741 23.5379 11.7843 23.5379 12.4614V12.923C23.5379 13.6864 22.9167 14.3076 22.1532 14.3076ZM19.384 11.0768C17.535 11.0768 16.1532 11.8078 16.1532 12.4614V12.923C16.1532 13.1775 16.3603 13.3845 16.6148 13.3845H22.1532C22.4077 13.3845 22.6148 13.1775 22.6148 12.923V12.4614C22.6148 11.8078 21.2331 11.0768 19.384 11.0768Z" fill="#0B1727"/>
<path d="M22.1532 20.3076H16.6148C16.3599 20.3076 16.1532 20.1009 16.1532 19.846V13.846C16.1532 13.5912 16.3599 13.3845 16.6148 13.3845H22.1532C22.4081 13.3845 22.6148 13.5912 22.6148 13.846V19.846C22.6148 20.1009 22.4081 20.3076 22.1532 20.3076ZM17.0763 19.3845H21.6917V14.3076H17.0763V19.3845ZM12.9225 20.3076H0.922476C0.667568 20.3076 0.460938 20.1009 0.460938 19.846V2.76912C0.460938 1.49666 1.49617 0.461426 2.76863 0.461426H14.7686C15.0235 0.461426 15.2302 0.668057 15.2302 0.922964C15.2302 1.17787 15.0235 1.3845 14.7686 1.3845C14.0052 1.3845 13.384 2.00564 13.384 2.76912V15.6922C13.384 15.9471 13.1773 16.1537 12.9225 16.1537H3.92248C3.54074 16.1537 3.23017 16.4643 3.23017 16.846C3.23017 17.2278 3.54074 17.5383 3.92248 17.5383H12.9225C13.1773 17.5383 13.384 17.745 13.384 17.9999V19.846C13.384 20.1009 13.1773 20.3076 12.9225 20.3076ZM1.38401 19.3845H12.4609V18.4614H3.92248C3.03175 18.4614 2.30709 17.7368 2.30709 16.846C2.30709 15.9553 3.03175 15.2307 3.92248 15.2307H12.4609V2.76912C12.4604 2.26954 12.6228 1.78343 12.9235 1.3845H2.76863C2.00515 1.3845 1.38401 2.00564 1.38401 2.76912V19.3845Z" fill="#0B1727"/>
<path d="M16.6143 18.4612H3.92203C3.0313 18.4612 2.30664 17.7366 2.30664 16.8459C2.30664 15.9551 3.0313 15.2305 3.92203 15.2305H16.6143C16.8692 15.2305 17.0759 15.4371 17.0759 15.692V17.9997C17.0759 18.2546 16.8692 18.4612 16.6143 18.4612ZM3.92203 16.1535C3.54029 16.1535 3.22972 16.4641 3.22972 16.8459C3.22972 17.2276 3.54029 17.5382 3.92203 17.5382H16.1528V16.1535H3.92203ZM6.92207 8.76907C6.8737 8.76907 6.82446 8.76136 6.77604 8.74525C5.03539 8.16501 4.15279 7.24128 4.15279 5.9997C4.15279 4.47275 5.39507 3.23047 6.92203 3.23047C8.44898 3.23047 9.69126 4.47275 9.69126 5.9997C9.69126 6.25461 9.48463 6.46124 9.22972 6.46124C8.97481 6.46124 8.76818 6.25461 8.76818 5.9997C8.76818 4.98173 7.93999 4.15355 6.92203 4.15355C5.90406 4.15355 5.07587 4.98173 5.07587 5.9997C5.07587 6.81108 5.72752 7.42271 7.06796 7.86953C7.30981 7.95016 7.44047 8.21153 7.35989 8.45333C7.29541 8.64676 7.11532 8.76907 6.92207 8.76907Z" fill="#0B1727"/>
<path d="M6.92248 14.3076C6.66757 14.3076 6.46094 14.1009 6.46094 13.8461V2.76916C6.46094 2.51425 6.66757 2.30762 6.92248 2.30762C7.17738 2.30762 7.38401 2.51425 7.38401 2.76916V13.8461C7.38401 14.1009 7.17738 14.3076 6.92248 14.3076Z" fill="#0B1727"/>
<path d="M6.92157 13.3843C5.39462 13.3843 4.15234 12.142 4.15234 10.615C4.15234 10.3601 4.35897 10.1535 4.61388 10.1535C4.86879 10.1535 5.07542 10.3601 5.07542 10.615C5.07542 11.633 5.90361 12.4612 6.92157 12.4612C7.93954 12.4612 8.76773 11.633 8.76773 10.615C8.76773 9.72612 8.19325 9.18524 6.78477 8.74816C6.54131 8.67261 6.40521 8.41401 6.48076 8.17055C6.55631 7.92709 6.81501 7.79107 7.05837 7.86653C8.18845 8.21726 9.69081 8.88372 9.69081 10.615C9.69081 12.142 8.44853 13.3843 6.92157 13.3843Z" fill="#0B1727"/>
</g>
<defs>
<clipPath id="clip0_30968_27315">
<rect width="24" height="24" fill="white"/>
</clipPath>
</defs>
</svg>
